<?xml version="1.0" encoding="utf-8"?>
<!-- Generator: Adobe Illustrator 18.0.0, SVG Export Plug-In . SVG Version: 6.00 Build 0)  -->
<!DOCTYPE svg PUBLIC "-//W3C//DTD SVG 1.1//EN" "http://www.w3.org/Graphics/SVG/1.1/DTD/svg11.dtd">
<svg version="1.1" xmlns="http://www.w3.org/2000/svg" xmlns:xlink="http://www.w3.org/1999/xlink" x="0px" y="0px"
	 viewBox="0 0 1378 1109.6" enable-background="new 0 0 1378 1109.6" xml:space="preserve">
<g id="SIGNATURE">
	<rect x="200.1" y="1014" fill="none" width="459.6" height="82.7"/>
	<text transform="matrix(1 0 0 1 200.1419 1033.1969)" fill="#8E99A8" font-family="'MyriadPro-Regular'" font-size="27">CHRISTOPHE KEREBEL</text>
	<rect x="799.2" y="1014.8" fill="none" width="384.4" height="82.7"/>
	<text transform="matrix(1 0 0 1 925.2454 1033.9501)"><tspan x="0" y="0" fill="#8E99A8" font-family="'MyriadPro-Regular'" font-size="27">My Twitter </tspan><tspan x="125.7" y="0" fill="#24A9E6" font-family="'MyriadPro-Regular'" font-size="27">: @chriskere</tspan></text>
</g>
<g id="BACKGROUND">
	<rect x="2.7" y="613.1" fill="#8E99A8" width="1372.9" height="332"/>
</g>
<g id="_x30_6-SINGLE-WHITE">
	<path id="Vimeo_3_" fill="#FFFFFF" d="M1153.1,793.1c-5.1-0.2-8.5,2.7-10.4,8.5c0.9-0.4,1.8-0.6,2.7-0.6c1.9,0,2.7,1,2.5,3.1
		c-0.1,1.3-0.9,3.1-2.5,5.5c-1.5,2.4-2.7,3.6-3.5,3.6c-1,0-1.9-1.8-2.7-5.5c-0.3-1.1-0.8-3.8-1.5-8.3c-0.7-4.1-2.4-6-5.3-5.8
		c-1.2,0.1-3,1.2-5.4,3.3c-1.8,1.6-3.5,3.1-5.3,4.7l1.7,2.2c1.6-1.1,2.6-1.7,2.9-1.7c1.3,0,2.4,2,3.5,5.9c1,3.6,2,7.2,3,10.7
		c1.5,3.9,3.3,5.8,5.4,5.8c3.5,0,7.7-3.2,12.7-9.6c4.8-6.1,7.3-10.9,7.5-14.5C1158.7,795.6,1156.9,793.2,1153.1,793.1z"/>
	<path id="Instagram_3_" fill="#FFFFFF" d="M1025.1,790.2h-27.9c-2.4,0-4.4,1.9-4.4,4.3v28c0,2.4,2,4.3,4.4,4.3h27.9
		c2.4,0,4.4-1.9,4.4-4.3v-28C1029.4,792.1,1027.5,790.2,1025.1,790.2z M1019.1,795.9c0-0.6,0.5-1.1,1.1-1.1h3.4
		c0.6,0,1.1,0.5,1.1,1.1v3.4c0,0.6-0.5,1.1-1.1,1.1h-3.4c-0.6,0-1.1-0.5-1.1-1.1V795.9z M1011.1,801.5c3.9,0,7.1,3.1,7.1,7
		c0,3.9-3.2,7-7.1,7c-3.9,0-7-3.1-7-7C1004.1,804.7,1007.2,801.5,1011.1,801.5z M1026,822.3c0,0.6-0.5,1.1-1.1,1.1h-27.5
		c-0.6,0-1.1-0.5-1.1-1.1v-17.2h4.6c-0.6,0.9-0.8,2.5-0.8,3.5c0,6.1,5,11.1,11.2,11.1c6.2,0,11.2-5,11.2-11.1c0-1-0.1-2.6-0.9-3.5
		h4.6V822.3z"/>
	<path id="Twitter_3_" fill="#FFFFFF" d="M900.4,793.4c-1.5,0.9-3.1,1.6-4.9,1.9c-1.4-1.5-3.4-2.5-5.6-2.5c-4.2,0-7.7,3.5-7.7,7.9
		c0,0.6,0.1,1.2,0.2,1.8c-6.4-0.3-12-3.5-15.8-8.2c-0.7,1.2-1,2.5-1,4c0,2.7,1.4,5.1,3.4,6.6c-1.3,0-2.4-0.4-3.5-1v0.1
		c0,3.8,2.6,7,6.2,7.7c-0.6,0.2-1.3,0.3-2,0.3c-0.5,0-1,0-1.4-0.1c1,3.1,3.8,5.4,7.2,5.5c-2.6,2.1-5.9,3.4-9.5,3.4
		c-0.6,0-1.2,0-1.8-0.1c3.4,2.2,7.4,3.5,11.8,3.5c14.1,0,21.9-12,21.9-22.4c0-0.3,0-0.7,0-1c1.5-1.1,2.8-2.5,3.8-4.1
		c-1.4,0.6-2.9,1.1-4.4,1.2C898.6,796.7,899.8,795.2,900.4,793.4z"/>
	<g id="LinkedIn_3_">
		<rect x="737.3" y="802.9" fill="#FFFFFF" width="7.2" height="22.8"/>
		<path fill="#FFFFFF" d="M764.1,802.6c-4.1,0-6.7,2.2-7.2,3.8v-3.6h-8.1c0.1,1.9,0,22.8,0,22.8h8.1v-12.3c0-0.7,0-1.4,0.2-1.9
			c0.6-1.4,1.7-2.8,3.9-2.8c2.8,0,4.1,2.1,4.1,5.2v11.8h8.2V813C773.2,805.9,769.2,802.6,764.1,802.6z"/>
		<path fill="#FFFFFF" d="M740.7,792.1c-2.7,0-4.4,1.7-4.4,4c0,2.2,1.7,3.9,4.3,3.9h0.1c2.7,0,4.4-1.7,4.4-4
			C745,793.8,743.4,792.1,740.7,792.1z"/>
	</g>
	<g id="Behance_3_">
		<path fill="#FFFFFF" d="M622.4,807.6c0.8-0.4,1.3-0.8,1.7-1.3c0.7-0.8,1-1.9,1-3.3c0-1.3-0.3-2.5-1-3.4c-1.2-1.5-3.1-2.3-5.9-2.4
			h-10.9v22.3h10.2c1.2,0,2.2-0.1,3.2-0.3c1-0.2,1.8-0.6,2.6-1.1c0.6-0.5,1.2-1.1,1.6-1.8c0.7-1,1-2.2,1-3.6c0-1.3-0.3-2.4-0.9-3.3
			C624.4,808.7,623.6,808,622.4,807.6z M611.9,801.1h4.9c1.1,0,2,0.1,2.7,0.3c0.8,0.3,1.2,1,1.2,2.1c0,0.9-0.3,1.6-0.9,2
			c-0.6,0.4-1.4,0.6-2.4,0.6h-5.5V801.1z M619.7,815.3c-0.5,0.3-1.3,0.4-2.3,0.4h-5.5v-6h5.6c1,0,1.7,0.1,2.3,0.4
			c1,0.4,1.4,1.2,1.4,2.4C621.1,813.9,620.6,814.8,619.7,815.3z"/>
		<rect x="630.8" y="798.3" fill="#FFFFFF" width="9.7" height="2.8"/>
		<path fill="#FFFFFF" d="M642.5,805.8c-0.8-1.1-1.7-1.9-2.9-2.4c-1.2-0.5-2.5-0.8-3.9-0.8c-2.5,0-4.4,0.8-6,2.3
			c-1.5,1.5-2.3,3.7-2.3,6.6c0,3.1,0.8,5.3,2.6,6.6c1.7,1.4,3.7,2,5.9,2c2.7,0,4.8-0.8,6.3-2.4c1-1,1.5-2,1.6-3h-4.5
			c-0.3,0.5-0.6,0.9-0.9,1.1c-0.6,0.5-1.4,0.8-2.4,0.8c-0.9,0-1.7-0.2-2.4-0.6c-1.1-0.7-1.7-1.8-1.8-3.5H644c0-1.4,0-2.5-0.1-3.3
			C643.6,807.9,643.2,806.8,642.5,805.8z M631.9,809.7c0.2-1.1,0.5-1.9,1.2-2.6c0.6-0.6,1.5-0.9,2.6-0.9c1,0,1.9,0.3,2.6,0.9
			c0.7,0.6,1.1,1.5,1.2,2.6H631.9z"/>
	</g>
	<path id="Dribbble_3_" fill="#FFFFFF" d="M514,801.4c-0.5-1.1-1-2.1-1.7-3.1c-0.7-1-1.4-1.9-2.2-2.7c-0.8-0.8-1.7-1.6-2.7-2.2
		c-1-0.7-2-1.2-3.1-1.7c-1.1-0.5-2.3-0.8-3.4-1.1c-1.2-0.2-2.4-0.4-3.7-0.4c-1.2,0-2.5,0.1-3.7,0.4c-1.2,0.2-2.3,0.6-3.4,1.1
		c-1.1,0.5-2.1,1-3.1,1.7c-1,0.7-1.9,1.4-2.7,2.2c-0.8,0.8-1.6,1.7-2.2,2.7c-0.7,1-1.2,2-1.7,3.1c-0.5,1.1-0.8,2.3-1.1,3.4
		c-0.2,1.2-0.4,2.4-0.4,3.7c0,1.2,0.1,2.5,0.4,3.7c0.2,1.2,0.6,2.3,1.1,3.4c0.5,1.1,1,2.1,1.7,3.1c0.7,1,1.4,1.9,2.2,2.7
		c0.8,0.8,1.7,1.6,2.7,2.2c1,0.7,2,1.2,3.1,1.7c1.1,0.5,2.3,0.8,3.4,1.1c1.2,0.3,2.4,0.4,3.7,0.4c1.2,0,2.5-0.1,3.7-0.4
		c1.2-0.2,2.3-0.6,3.4-1.1c1.1-0.5,2.1-1,3.1-1.7c1-0.7,1.9-1.4,2.7-2.2c0.8-0.8,1.6-1.7,2.2-2.7c0.7-1,1.2-2,1.7-3.1
		c0.5-1.1,0.8-2.3,1.1-3.4c0.2-1.2,0.4-2.4,0.4-3.7c0-1.2-0.1-2.5-0.4-3.7C514.8,803.6,514.5,802.5,514,801.4z M497.1,792.8
		c4,0,7.6,1.5,10.3,3.9c0,0.1-2.3,3.5-8.2,5.7c-2.7-4.9-5.6-8.8-5.9-9.1C494.6,793,495.9,792.8,497.1,792.8z M493.4,793.3
		C493.4,793.3,493.4,793.3,493.4,793.3C493.4,793.3,493.4,793.3,493.4,793.3C493.3,793.3,493.4,793.3,493.4,793.3z M490.4,794.3
		c0.2,0.3,3.1,4.2,5.8,9c-7.5,2-14,1.9-14.5,1.9C482.8,800.4,486.1,796.4,490.4,794.3z M485.5,819c-2.5-2.8-4-6.4-4-10.5
		c0-0.2,0-0.3,0-0.5c0.3,0,8,0.2,16.1-2.2c0.4,0.9,0.9,1.8,1.3,2.7c-0.2,0.1-0.4,0.1-0.6,0.2C489.8,811.4,485.5,819,485.5,819
		C485.5,819,485.5,819,485.5,819z M497.1,824.2c-3.7,0-7.1-1.3-9.8-3.4c-0.1,0-0.1-0.1-0.2-0.2c0.1,0.1,0.1,0.1,0.2,0.2
		c0.1,0.1,0.2,0.1,0.2,0.1s3-6.5,12.3-9.8c0,0,0.1,0,0.1,0c2.2,5.7,3.1,10.5,3.3,11.9C501.4,823.7,499.3,824.2,497.1,824.2z
		 M505.9,821.5c-0.2-0.9-1-5.5-3-11.2c5.1-0.8,9.4,0.6,9.8,0.7C511.9,815.4,509.4,819.1,505.9,821.5z M501.9,807.8
		c-0.1-0.3-0.2-0.5-0.3-0.8c-0.3-0.8-0.7-1.5-1-2.3c6.2-2.5,8.7-6.2,8.7-6.2c2.2,2.7,3.5,6.1,3.6,9.8
		C512.6,808.3,507.3,807.2,501.9,807.8z"/>
	<path id="Facebook_2_" fill="#FFFFFF" d="M386.7,825.3c0,1.1-0.9,2-2,2h-9.4v-14.2h4.8l0.7-5.5h-5.5v-3.5c0-1.6,0.4-2.7,2.7-2.7
		l2.9,0v-5c-0.5-0.1-2.2-0.2-4.3-0.2c-4.2,0-7.1,2.6-7.1,7.3v4.1h-4.8v5.5h4.8v14.2h-17.6c-1.1,0-2-0.9-2-2v-32.7c0-1.1,0.9-2,2-2
		h32.7c1.1,0,2,0.9,2,2V825.3z"/>
	<g id="Google_x2B__2_">
		<path fill="#FFFFFF" d="M231.4,806.1v5.1c0,0,4.9,0,6.9,0c-1.1,3.3-2.8,5.1-6.9,5.1c-4.2,0-7.5-3.4-7.5-7.6c0-4.2,3.3-7.6,7.5-7.6
			c2.2,0,3.7,0.8,5,1.9c1.1-1.1,1-1.2,3.6-3.7c-2.3-2.1-5.3-3.3-8.6-3.3c-7.1,0-12.8,5.7-12.8,12.8c0,7.1,5.7,12.8,12.8,12.8
			c10.6,0,13.2-9.2,12.3-15.4H231.4z"/>
		<polygon fill="#FFFFFF" points="254.5,806.3 254.5,801.9 251.4,801.9 251.4,806.3 246.8,806.3 246.8,809.5 251.4,809.5 
			251.4,814.1 254.5,814.1 254.5,809.5 259,809.5 259,806.3 		"/>
	</g>
</g>
<g id="_x30_5-FULL-WHITE">
	<g id="Vimeo_5_">
		<path fill="#FFFFFF" d="M1140.1,641.8c-21,0-38,17-38,38c0,21,17,38,38,38c21,0,38-17,38-38
			C1178.1,658.8,1161.1,641.8,1140.1,641.8z M1151,686c-5,6.4-9.2,9.6-12.7,9.6c-2.1,0-3.9-1.9-5.4-5.9c-1-3.6-2-7.2-3-10.7
			c-1.1-3.9-2.3-5.9-3.5-5.9c-0.3,0-1.2,0.6-2.9,1.7l-1.7-2.2c1.8-1.6,3.6-3.1,5.3-4.7c2.4-2.1,4.2-3.1,5.4-3.3
			c2.9-0.3,4.6,1.7,5.3,5.8c0.7,4.4,1.2,7.2,1.5,8.3c0.8,3.7,1.7,5.5,2.7,5.5c0.8,0,1.9-1.2,3.5-3.6c1.5-2.4,2.3-4.2,2.5-5.5
			c0.2-2.1-0.6-3.1-2.5-3.1c-0.9,0-1.8,0.2-2.7,0.6c1.8-5.8,5.3-8.6,10.4-8.5c3.8,0.1,5.6,2.5,5.3,7.2
			C1158.3,675,1155.8,679.9,1151,686z"/>
	</g>
	<g id="Instagram_5_">
		<path fill="#FFFFFF" d="M1004.1,679.7c0-3.9,3.2-7,7-7c3.9,0,7.1,3.1,7.1,7c0,3.9-3.2,7-7.1,7
			C1007.2,686.8,1004.1,683.6,1004.1,679.7z"/>
		<path fill="#FFFFFF" d="M1024.6,670.5c0,0.6-0.5,1.2-1.1,1.2h-3.7c-0.6,0-1.2-0.5-1.2-1.2v-3.7c0-0.6,0.5-1.2,1.2-1.2h3.7
			c0.6,0,1.1,0.5,1.1,1.2V670.5z"/>
		<path fill="#FFFFFF" d="M1021.4,676.7h4.2v16.7c0,0.6-0.1,1.3-0.8,1.3h-27.5c-0.6,0-0.7-0.6-0.7-1.3v-16.7h4.2
			c-0.6,0-0.8,2.2-0.8,3.3c0,6.1,5,11,11.2,11c6.2,0,11.2-4.8,11.2-11C1022.3,679,1022.1,676.7,1021.4,676.7z"/>
		<path fill="#FFFFFF" d="M1010.1,641.8c-21,0-38,17-38,38c0,21,17,38,38,38c21,0,38-17,38-38
			C1048.1,658.8,1031.1,641.8,1010.1,641.8z M1029.6,693.7c0,2.4-2.1,4-4.5,4h-28c-2.4,0-4.5-1.6-4.5-4v-28c0-2.4,2.1-4,4.5-4h28
			c2.4,0,4.5,1.6,4.5,4V693.7z"/>
	</g>
	<g id="Twitter_5_">
		<path fill="#FFFFFF" d="M883.1,641.8c-21,0-38,17-38,38c0,21,17,38,38,38c21,0,38-17,38-38C921.1,658.8,904.1,641.8,883.1,641.8z
			 M897.6,671.7c0,0.3,0,0.7,0,1c0,10.4-7.7,22.4-21.9,22.4c-4.3,0-8.4-1.3-11.8-3.5c0.6,0.1,1.2,0.1,1.8,0.1c3.6,0,6.9-1.3,9.5-3.4
			c-3.4-0.1-6.2-2.3-7.2-5.5c0.5,0.1,1,0.1,1.4,0.1c0.7,0,1.5-0.1,2.1-0.3c-3.5-0.7-6.1-3.9-6.1-7.7V675c1,0.6,2.1,0.9,3.4,1
			c-2.1-1.4-3.5-3.8-3.5-6.6c0-1.4,0.4-2.8,1-4c3.8,4.8,9.4,7.9,15.8,8.2c-0.1-0.6-0.2-1.2-0.2-1.8c0-4.3,3.4-7.9,7.7-7.9
			c2.2,0,4.2,1,5.6,2.5c1.8-0.4,3.4-1,4.9-1.9c-0.6,1.8-1.8,3.4-3.4,4.4c1.6-0.2,3-0.6,4.4-1.2C900.4,669.2,899.1,670.6,897.6,671.7
			z"/>
	</g>
	<g id="LinKeDin">
		<path fill="#FFFFFF" d="M754.1,641.8c-21,0-38,17-38,38c0,21,17,38,38,38c21,0,38-17,38-38C792.1,658.8,775.1,641.8,754.1,641.8z
			 M744.6,696.7h-7v-23h7V696.7z M740.7,671.7L740.7,671.7c-2.7,0-4.3-2-4.3-4.2c0-2.2,1.7-4.1,4.4-4.1c2.6,0,4.3,1.9,4.3,4.1
			C745.1,669.8,743.4,671.7,740.7,671.7z M773.6,696.7h-9V685c0-3.1-1-5.2-3.8-5.2c-2.1,0-3.4,1.4-3.9,2.8c-0.2,0.5-0.2,1.2-0.2,1.9
			v12.2h-7.7c0,0,0.1-21,0-23h7.7v3.9c1-1.6,3.4-3.8,7.5-3.8c5.1,0,9.5,3.3,9.5,10.3V696.7z"/>
	</g>
	<g id="Behance_5_">
		<path fill="#FFFFFF" d="M617.4,677.7h-5.8v-5h5.2c1.1,0,2-0.1,2.7,0.2c0.8,0.3,1.2,0.9,1.2,2c0,0.9-0.3,1.8-0.9,2.1
			C619.1,677.3,618.3,677.7,617.4,677.7z"/>
		<path fill="#FFFFFF" d="M621.1,683.7c0,1.4-0.5,2.2-1.5,2.7c-0.5,0.3-1.3,0.3-2.3,0.3h-5.8v-6h5.8c1,0,1.7,0.2,2.3,0.5
			C620.7,681.6,621.1,682.5,621.1,683.7z"/>
		<path fill="#FFFFFF" d="M625.1,641.8c-21,0-38,17-38,38c0,21,17,38,38,38c21,0,38-17,38-38C663.1,658.8,646.1,641.8,625.1,641.8z
			 M630.6,669.7h10v3h-10V669.7z M624.9,687.6c-0.4,0.7-1,1.3-1.6,1.8c-0.7,0.5-1.6,0.9-2.6,1.1c-1,0.2-2,0.3-3.2,0.3h-10v-22h10.7
			c2.8,0,4.7,0.7,5.9,2.2c0.7,1,1,2,1,3.3c0,1.4-0.3,2.4-1,3.2c-0.4,0.5-1,0.9-1.7,1.3c1.1,0.4,2,1.1,2.6,2s0.9,2,0.9,3.3
			C625.9,685.3,625.6,686.5,624.9,687.6z M644,683.7h-12.2c0.1,2,0.7,2.8,1.8,3.5c0.7,0.4,1.5,0.6,2.4,0.6c1,0,1.8-0.3,2.4-0.8
			c0.3-0.3,0.6-0.2,0.9-1.2h4.5c-0.1,1-0.7,2.1-1.6,3.1c-1.5,1.6-3.6,2.5-6.3,2.5c-2.2,0-4.2-0.7-5.9-2c-1.7-1.4-2.6-3.6-2.6-6.6
			c0-2.9,0.8-5,2.3-6.6c1.5-1.5,3.5-2.3,6-2.3c1.5,0,2.8,0.3,3.9,0.8c1.2,0.5,2.1,1.3,2.9,2.5c0.7,1,1.1,2.1,1.3,3.4
			C644,681.2,644,682.7,644,683.7z M635.7,677.3c-1.1,0-2,0.3-2.6,0.9c-0.6,0.6-1,1.5-1.2,2.5h7.6c-0.1-1-0.5-2-1.2-2.5
			C637.6,677.6,636.7,677.3,635.7,677.3z"/>
	</g>
	<g id="Dribbble_5_">
		<path fill="#FFFFFF" d="M481.8,676.5c1-4.8,4.3-8.9,8.6-10.9c0.2,0.3,3.1,4.2,5.8,9C488.7,676.5,482.2,676.5,481.8,676.5z"/>
		<path fill="#FFFFFF" d="M485.5,690.1c-2.5-2.8-4-6.4-4-10.5c0-0.2,0-0.3,0-0.5c0.3,0,8,0.2,16.1-2.2c0.4,0.9,0.9,1.8,1.3,2.7
			c-0.2,0.1-0.4,0.1-0.6,0.2C489.8,682.5,485.5,690.1,485.5,690.1z"/>
		<path fill="#FFFFFF" d="M499.9,682.2c2.2,5.7,3.1,10.5,3.3,11.9c-1.9,0.8-3.9,1.2-6.1,1.2c-3.6,0-7-1.2-9.6-3.3
			c0,0,3-6.5,12.3-9.8C499.8,682.2,499.9,682.2,499.9,682.2z"/>
		<path fill="#FFFFFF" d="M499.3,673.6c-2.7-4.9-5.6-8.8-5.8-9.1c1.2-0.3,2.4-0.5,3.7-0.5c4,0,7.6,1.5,10.3,3.9
			C507.4,668,505.2,671.4,499.3,673.6z"/>
		<path fill="#FFFFFF" d="M512.6,682.2c-0.7,4.4-3.2,8.1-6.7,10.5c-0.2-0.9-1-5.5-3.1-11.2C507.9,680.7,512.3,682.1,512.6,682.2z"/>
		<path fill="#FFFFFF" d="M509.2,669.7c2.2,2.7,3.5,6.1,3.6,9.8c-0.2,0-5.5-1.2-10.9-0.5c-0.1-0.3-0.2-0.5-0.3-0.8
			c-0.3-0.8-0.7-1.5-1-2.3C506.7,673.4,509.2,669.8,509.2,669.7z"/>
		<path fill="#FFFFFF" d="M497.1,641.8c-21,0-38,17-38,38c0,21,17,38,38,38c21,0,38-17,38-38C535.1,658.8,518.1,641.8,497.1,641.8z
			 M515.1,683.4c-0.2,1.2-0.6,2.3-1.1,3.4c-0.5,1.1-1,2.1-1.7,3.1c-0.6,1-1.4,1.9-2.2,2.7c-0.8,0.8-1.7,1.6-2.7,2.2
			c-1,0.7-2,1.2-3.1,1.7c-1.1,0.5-2.3,0.8-3.5,1.1c-1.2,0.2-2.4,0.4-3.7,0.4c-1.2,0-2.5-0.1-3.7-0.4c-1.2-0.2-2.3-0.6-3.4-1.1
			c-1.1-0.5-2.1-1-3.1-1.7c-1-0.7-1.9-1.4-2.7-2.2c-0.8-0.8-1.6-1.7-2.2-2.7c-0.7-1-1.2-2-1.7-3.1c-0.5-1.1-0.8-2.3-1.1-3.4
			c-0.2-1.2-0.4-2.5-0.4-3.7c0-1.2,0.1-2.5,0.4-3.7c0.2-1.2,0.6-2.3,1.1-3.4c0.5-1.1,1-2.1,1.7-3.1c0.7-1,1.4-1.9,2.2-2.7
			c0.8-0.8,1.7-1.6,2.7-2.2c1-0.7,2-1.2,3.1-1.7c1.1-0.5,2.3-0.8,3.4-1.1c1.2-0.2,2.5-0.4,3.7-0.4c1.2,0,2.5,0.1,3.7,0.4
			c1.2,0.2,2.3,0.6,3.5,1.1c1.1,0.5,2.1,1,3.1,1.7c1,0.7,1.9,1.4,2.7,2.2c0.8,0.8,1.6,1.7,2.2,2.7c0.7,1,1.2,2,1.7,3.1
			c0.5,1.1,0.8,2.3,1.1,3.4c0.2,1.2,0.4,2.5,0.4,3.7C515.5,680.9,515.3,682.2,515.1,683.4z"/>
	</g>
	<g id="Facebook_4_">
		<path fill="#FFFFFF" d="M368.1,640.4c-21,0-38,17-38,38c0,21,17,38,38,38c21,0,38-17,38-38C406.1,657.4,389.1,640.4,368.1,640.4z
			 M386.6,694.4c0,1.1-0.5,2.3-1.7,2.3h-9.3v-14h4.8l0.7-6h-5.5v-3.6c0-1.6,0.4-2.4,2.7-2.4h3.3v-5.2c-1-0.1-2.6-0.2-4.6-0.2
			c-4.2,0-7.4,2.6-7.4,7.3v4.1h-5v6h5v14h-17.3c-1.1,0-1.7-1.2-1.7-2.3v-32.7c0-1.1,0.6-2,1.7-2h32.7c1.1,0,1.7,0.9,1.7,2V694.4z"/>
	</g>
	<g id="Google_x2B__3_">
		<path fill="#FFFFFF" d="M238.8,640.5c-21,0-38,17-38,38c0,21,17,38,38,38c21,0,38-17,38-38C276.8,657.5,259.8,640.5,238.8,640.5z
			 M231.4,691.8c-7.1,0-12.8-5.9-12.8-13c0-7.1,5.7-12.9,12.8-12.9c3.3,0,6.4,1.2,8.6,3.3c-2.7,2.5-2.6,2.7-3.6,3.7
			c-1.3-1.1-2.8-1.9-5-1.9c-4.2,0-7.5,3.4-7.5,7.6c0,4.2,3.3,7.9,7.5,7.9c4.2,0,5.8-1.8,6.9-4.8c-2,0-6.8,0-6.8,0v-5h12.2
			C244.6,682.7,242,691.8,231.4,691.8z M258.6,679.7h-4v5h-3v-5h-5v-3h5v-4h3v4h4V679.7z"/>
	</g>
</g>
<g id="_x30_4-FULL-COLOR">
	<g id="Vimeo_6_">
		<circle fill="#1CB1E6" cx="1140.1" cy="547.8" r="38"/>
		<g id="Vimeo_2_">
			<path fill="#FFFFFF" d="M1153.1,532.3c-5.1-0.2-8.5,2.7-10.4,8.5c0.9-0.4,1.8-0.6,2.7-0.6c1.9,0,2.7,1,2.5,3.1
				c-0.1,1.3-0.9,3.1-2.5,5.5c-1.5,2.4-2.7,3.6-3.5,3.6c-1,0-1.9-1.8-2.7-5.5c-0.3-1.1-0.8-3.8-1.5-8.3c-0.7-4.1-2.4-6-5.3-5.8
				c-1.2,0.1-3,1.2-5.4,3.3c-1.8,1.6-3.5,3.1-5.3,4.7l1.7,2.2c1.6-1.1,2.6-1.7,2.9-1.7c1.3,0,2.4,2,3.5,5.9c1,3.6,2,7.2,3,10.7
				c1.5,3.9,3.3,5.8,5.4,5.8c3.5,0,7.7-3.2,12.7-9.6c4.8-6.1,7.3-10.9,7.5-14.5C1158.7,534.8,1156.9,532.4,1153.1,532.3z"/>
		</g>
	</g>
	<g id="Instagram_6_">
		<circle fill="#2A5B83" cx="1010.1" cy="547.8" r="38"/>
		<path id="Instagram_2_" fill="#FFFFFF" d="M1025.1,529.4h-27.9c-2.4,0-4.4,1.9-4.4,4.3v28c0,2.4,2,4.3,4.4,4.3h27.9
			c2.4,0,4.4-1.9,4.4-4.3v-28C1029.4,531.3,1027.5,529.4,1025.1,529.4z M1019.1,535.1c0-0.6,0.5-1.1,1.1-1.1h3.4
			c0.6,0,1.1,0.5,1.1,1.1v3.4c0,0.6-0.5,1.1-1.1,1.1h-3.4c-0.6,0-1.1-0.5-1.1-1.1V535.1z M1011.1,540.7c3.9,0,7.1,3.1,7.1,7
			c0,3.9-3.2,7-7.1,7c-3.9,0-7-3.1-7-7C1004.1,543.9,1007.2,540.7,1011.1,540.7z M1026,561.4c0,0.6-0.5,1.1-1.1,1.1h-27.5
			c-0.6,0-1.1-0.5-1.1-1.1v-17.2h4.6c-0.6,0.9-0.8,2.5-0.8,3.5c0,6.1,5,11.1,11.2,11.1c6.2,0,11.2-5,11.2-11.1c0-1-0.1-2.6-0.9-3.5
			h4.6V561.4z"/>
	</g>
	<g id="Twitter_6_">
		<circle fill="#24A9E6" cx="883.1" cy="547.8" r="38"/>
		<path id="Twitter_2_" fill="#FFFFFF" d="M900.4,532.6c-1.5,0.9-3.1,1.6-4.9,1.9c-1.4-1.5-3.4-2.5-5.6-2.5c-4.2,0-7.7,3.5-7.7,7.9
			c0,0.6,0.1,1.2,0.2,1.8c-6.4-0.3-12-3.5-15.8-8.2c-0.7,1.2-1,2.5-1,4c0,2.7,1.4,5.1,3.4,6.6c-1.3,0-2.4-0.4-3.5-1v0.1
			c0,3.8,2.6,7,6.2,7.7c-0.6,0.2-1.3,0.3-2,0.3c-0.5,0-1,0-1.4-0.1c1,3.1,3.8,5.4,7.2,5.5c-2.6,2.1-5.9,3.4-9.5,3.4
			c-0.6,0-1.2,0-1.8-0.1c3.4,2.2,7.4,3.5,11.8,3.5c14.1,0,21.9-12,21.9-22.4c0-0.3,0-0.7,0-1c1.5-1.1,2.8-2.5,3.8-4.1
			c-1.4,0.6-2.9,1.1-4.4,1.2C898.6,535.9,899.8,534.4,900.4,532.6z"/>
	</g>
	<g id="LinKeDin_1_">
		<circle fill="#187FB8" cx="754.1" cy="547.8" r="38"/>
		<g id="LinkedIn_2_">
			<rect x="737.3" y="542.1" fill="#FFFFFF" width="7.2" height="22.8"/>
			<path fill="#FFFFFF" d="M764.1,541.8c-4.1,0-6.7,2.2-7.2,3.8v-3.6h-8.1c0.1,1.9,0,22.8,0,22.8h8.1v-12.3c0-0.7,0-1.4,0.2-1.9
				c0.6-1.4,1.7-2.8,3.9-2.8c2.8,0,4.1,2.1,4.1,5.2v11.8h8.2v-12.7C773.2,545.1,769.2,541.8,764.1,541.8z"/>
			<path fill="#FFFFFF" d="M740.7,531.3c-2.7,0-4.4,1.7-4.4,4c0,2.2,1.7,3.9,4.3,3.9h0.1c2.7,0,4.4-1.7,4.4-4
				C745,533,743.4,531.3,740.7,531.3z"/>
		</g>
	</g>
	<g id="Behance_6_">
		<circle fill="#1A70F9" cx="625.1" cy="547.8" r="38"/>
		<g id="Behance_2_">
			<path fill="#FFFFFF" d="M622.4,546.8c0.8-0.4,1.3-0.8,1.7-1.3c0.7-0.8,1-1.9,1-3.3c0-1.3-0.3-2.5-1-3.4c-1.2-1.5-3.1-2.3-5.9-2.4
				h-10.9v22.3h10.2c1.2,0,2.2-0.1,3.2-0.3c1-0.2,1.8-0.6,2.6-1.1c0.6-0.5,1.2-1.1,1.6-1.8c0.7-1,1-2.2,1-3.6c0-1.3-0.3-2.4-0.9-3.3
				C624.4,547.8,623.6,547.2,622.4,546.8z M611.9,540.3h4.9c1.1,0,2,0.1,2.7,0.3c0.8,0.3,1.2,1,1.2,2.1c0,0.9-0.3,1.6-0.9,2
				c-0.6,0.4-1.4,0.6-2.4,0.6h-5.5V540.3z M619.7,554.5c-0.5,0.3-1.3,0.4-2.3,0.4h-5.5v-6h5.6c1,0,1.7,0.1,2.3,0.4
				c1,0.4,1.4,1.2,1.4,2.4C621.1,553.1,620.6,554,619.7,554.5z"/>
			<rect x="630.8" y="537.5" fill="#FFFFFF" width="9.7" height="2.8"/>
			<path fill="#FFFFFF" d="M642.5,545c-0.8-1.1-1.7-1.9-2.9-2.4c-1.2-0.5-2.5-0.8-3.9-0.8c-2.5,0-4.4,0.8-6,2.3
				c-1.5,1.5-2.3,3.7-2.3,6.6c0,3.1,0.8,5.3,2.6,6.6c1.7,1.4,3.7,2,5.9,2c2.7,0,4.8-0.8,6.3-2.4c1-1,1.5-2,1.6-3h-4.5
				c-0.3,0.5-0.6,0.9-0.9,1.1c-0.6,0.5-1.4,0.8-2.4,0.8c-0.9,0-1.7-0.2-2.4-0.6c-1.1-0.7-1.7-1.8-1.8-3.5H644c0-1.4,0-2.5-0.1-3.3
				C643.6,547.1,643.2,546,642.5,545z M631.9,548.9c0.2-1.1,0.5-1.9,1.2-2.6c0.6-0.6,1.5-0.9,2.6-0.9c1,0,1.9,0.3,2.6,0.9
				c0.7,0.6,1.1,1.5,1.2,2.6H631.9z"/>
		</g>
	</g>
	<g id="Dribbble_6_">
		<circle fill="#E64C87" cx="497.1" cy="547.8" r="38"/>
		<g>
			<path id="Dribbble_2_" fill="#FFFFFF" d="M514,540.6c-0.5-1.1-1-2.1-1.7-3.1c-0.7-1-1.4-1.9-2.2-2.7c-0.8-0.8-1.7-1.6-2.7-2.2
				c-1-0.7-2-1.2-3.1-1.7c-1.1-0.5-2.3-0.8-3.4-1.1c-1.2-0.2-2.4-0.4-3.7-0.4c-1.2,0-2.5,0.1-3.7,0.4c-1.2,0.2-2.3,0.6-3.4,1.1
				c-1.1,0.5-2.1,1-3.1,1.7c-1,0.7-1.9,1.4-2.7,2.2c-0.8,0.8-1.6,1.7-2.2,2.7c-0.7,1-1.2,2-1.7,3.1c-0.5,1.1-0.8,2.3-1.1,3.4
				c-0.2,1.2-0.4,2.4-0.4,3.7c0,1.2,0.1,2.5,0.4,3.7c0.2,1.2,0.6,2.3,1.1,3.4c0.5,1.1,1,2.1,1.7,3.1c0.7,1,1.4,1.9,2.2,2.7
				c0.8,0.8,1.7,1.6,2.7,2.2c1,0.7,2,1.2,3.1,1.7c1.1,0.5,2.3,0.8,3.4,1.1c1.2,0.3,2.4,0.4,3.7,0.4c1.2,0,2.5-0.1,3.7-0.4
				c1.2-0.2,2.3-0.6,3.4-1.1c1.1-0.5,2.1-1,3.1-1.7c1-0.7,1.9-1.4,2.7-2.2c0.8-0.8,1.6-1.7,2.2-2.7c0.7-1,1.2-2,1.7-3.1
				c0.5-1.1,0.8-2.3,1.1-3.4c0.2-1.2,0.4-2.4,0.4-3.7c0-1.2-0.1-2.5-0.4-3.7C514.8,542.8,514.5,541.7,514,540.6z M497.1,532
				c4,0,7.6,1.5,10.3,3.9c0,0.1-2.3,3.5-8.2,5.7c-2.7-4.9-5.6-8.8-5.9-9.1C494.6,532.2,495.9,532,497.1,532z M493.4,532.5
				C493.4,532.5,493.4,532.5,493.4,532.5C493.4,532.5,493.4,532.5,493.4,532.5C493.3,532.5,493.4,532.5,493.4,532.5z M490.4,533.5
				c0.2,0.3,3.1,4.2,5.8,9c-7.5,2-14,1.9-14.5,1.9C482.8,539.6,486.1,535.6,490.4,533.5z M485.5,558.2c-2.5-2.8-4-6.4-4-10.5
				c0-0.2,0-0.3,0-0.5c0.3,0,8,0.2,16.1-2.2c0.4,0.9,0.9,1.8,1.3,2.7c-0.2,0.1-0.4,0.1-0.6,0.2C489.8,550.5,485.5,558.1,485.5,558.2
				C485.5,558.1,485.5,558.2,485.5,558.2z M497.1,563.4c-3.7,0-7.1-1.3-9.8-3.4c-0.1,0-0.1-0.1-0.2-0.2c0.1,0.1,0.1,0.1,0.2,0.2
				c0.1,0.1,0.2,0.1,0.2,0.1s3-6.5,12.3-9.8c0,0,0.1,0,0.1,0c2.2,5.7,3.1,10.5,3.3,11.9C501.4,562.9,499.3,563.4,497.1,563.4z
				 M505.9,560.7c-0.2-0.9-1-5.5-3-11.2c5.1-0.8,9.4,0.6,9.8,0.7C511.9,554.5,509.4,558.3,505.9,560.7z M501.9,547
				c-0.1-0.3-0.2-0.5-0.3-0.8c-0.3-0.8-0.7-1.5-1-2.3c6.2-2.5,8.7-6.2,8.7-6.2c2.2,2.7,3.5,6.1,3.6,9.8
				C512.6,547.5,507.3,546.3,501.9,547z"/>
		</g>
	</g>
	<g id="Facebook_5_">
		<path fill="#43619C" d="M368.1,509.8c-21,0-38,17-38,38c0,21,17,38,38,38c21,0,38-17,38-38C406.1,526.8,389.1,509.8,368.1,509.8z
			 M386.6,563.8c0,1.1-0.5,1.9-1.7,1.9h-9.3v-14h4.8l0.7-6h-5.5v-3.1c0-1.6,0.4-2.9,2.7-2.9h3.3v-4.8c-1-0.1-2.6-0.2-4.6-0.2
			c-4.2,0-7.4,2.6-7.4,7.3v3.7h-5v6h5v14h-17.3c-1.1,0-1.7-0.7-1.7-1.9v-32.7c0-1.1,0.6-2.5,1.7-2.5h32.7c1.1,0,1.7,1.4,1.7,2.5
			V563.8z"/>
	</g>
	<g id="Google_x2B__4_">
		<path fill="#F24033" d="M238.8,509.8c-21,0-38,17-38,38c0,21,17,38,38,38c21,0,38-17,38-38C276.8,526.8,259.8,509.8,238.8,509.8z
			 M231.4,560.9c-7.1,0-12.8-5.8-12.8-12.9c0-7.1,5.7-12.9,12.8-12.9c3.3,0,6.4,1.3,8.6,3.3c-2.7,2.5-2.6,2.7-3.6,3.7
			c-1.3-1.1-2.8-1.9-5-1.9c-4.2,0-7.5,3.4-7.5,7.6c0,4.2,3.3,7.7,7.5,7.7c4.2,0,5.8-2,6.9-5c-2,0-6.8,0-6.8,0v-5h12.2
			C244.6,551.7,242,560.9,231.4,560.9z M258.6,548.7h-4v5h-3v-5h-5v-3h5v-4h3v4h4V548.7z"/>
	</g>
</g>
<g id="_x30_3-SINGLE-COLOR">
	<path id="Vimeo_4_" fill="#1CB1E6" d="M1153.1,404c-5.1-0.2-8.5,2.7-10.4,8.5c0.9-0.4,1.8-0.6,2.7-0.6c1.9,0,2.7,1,2.5,3.1
		c-0.1,1.3-0.9,3.1-2.5,5.5c-1.5,2.4-2.7,3.6-3.5,3.6c-1,0-1.9-1.8-2.7-5.5c-0.3-1.1-0.8-3.8-1.5-8.3c-0.7-4.1-2.4-6-5.3-5.8
		c-1.2,0.1-3,1.2-5.4,3.3c-1.8,1.6-3.5,3.1-5.3,4.7l1.7,2.2c1.6-1.1,2.6-1.7,2.9-1.7c1.3,0,2.4,2,3.5,5.9c1,3.6,2,7.2,3,10.7
		c1.5,3.9,3.3,5.8,5.4,5.8c3.5,0,7.7-3.2,12.7-9.6c4.8-6.1,7.3-10.9,7.5-14.5C1158.7,406.6,1156.9,404.2,1153.1,404z"/>
	<path id="Instagram_4_" fill="#2A5B83" d="M1025.1,401.1h-27.9c-2.4,0-4.4,1.9-4.4,4.3v28c0,2.4,2,4.3,4.4,4.3h27.9
		c2.4,0,4.4-1.9,4.4-4.3v-28C1029.4,403.1,1027.5,401.1,1025.1,401.1z M1019.1,406.9c0-0.6,0.5-1.1,1.1-1.1h3.4
		c0.6,0,1.1,0.5,1.1,1.1v3.4c0,0.6-0.5,1.1-1.1,1.1h-3.4c-0.6,0-1.1-0.5-1.1-1.1V406.9z M1011.1,412.5c3.9,0,7.1,3.1,7.1,7
		c0,3.9-3.2,7-7.1,7c-3.9,0-7-3.1-7-7C1004.1,415.6,1007.2,412.5,1011.1,412.5z M1026,433.2c0,0.6-0.5,1.1-1.1,1.1h-27.5
		c-0.6,0-1.1-0.5-1.1-1.1V416h4.6c-0.6,0.9-0.8,2.5-0.8,3.5c0,6.1,5,11.1,11.2,11.1c6.2,0,11.2-5,11.2-11.1c0-1-0.1-2.6-0.9-3.5h4.6
		V433.2z"/>
	<path id="Twitter_4_" fill="#24A9E6" d="M900.4,404.3c-1.5,0.9-3.1,1.6-4.9,1.9c-1.4-1.5-3.4-2.5-5.6-2.5c-4.2,0-7.7,3.5-7.7,7.9
		c0,0.6,0.1,1.2,0.2,1.8c-6.4-0.3-12-3.5-15.8-8.2c-0.7,1.2-1,2.5-1,4c0,2.7,1.4,5.1,3.4,6.6c-1.3,0-2.4-0.4-3.5-1v0.1
		c0,3.8,2.6,7,6.2,7.7c-0.6,0.2-1.3,0.3-2,0.3c-0.5,0-1,0-1.4-0.1c1,3.1,3.8,5.4,7.2,5.5c-2.6,2.1-5.9,3.4-9.5,3.4
		c-0.6,0-1.2,0-1.8-0.1c3.4,2.2,7.4,3.5,11.8,3.5c14.1,0,21.9-12,21.9-22.4c0-0.3,0-0.7,0-1c1.5-1.1,2.8-2.5,3.8-4.1
		c-1.4,0.6-2.9,1.1-4.4,1.2C898.6,407.7,899.8,406.2,900.4,404.3z"/>
	<g id="LinkedIn_4_">
		<rect x="737.3" y="413.8" fill="#187FB8" width="7.2" height="22.8"/>
		<path fill="#187FB8" d="M764.1,413.6c-4.1,0-6.7,2.2-7.2,3.8v-3.6h-8.1c0.1,1.9,0,22.8,0,22.8h8.1v-12.3c0-0.7,0-1.4,0.2-1.9
			c0.6-1.4,1.7-2.8,3.9-2.8c2.8,0,4.1,2.1,4.1,5.2v11.8h8.2v-12.7C773.2,416.9,769.2,413.6,764.1,413.6z"/>
		<path fill="#187FB8" d="M740.7,403.1c-2.7,0-4.4,1.7-4.4,4c0,2.2,1.7,3.9,4.3,3.9h0.1c2.7,0,4.4-1.7,4.4-4
			C745,404.8,743.4,403.1,740.7,403.1z"/>
	</g>
	<g id="Behance_4_">
		<path fill="#1A70F9" d="M622.4,418.5c0.8-0.4,1.3-0.8,1.7-1.3c0.7-0.8,1-1.9,1-3.3c0-1.3-0.3-2.5-1-3.4c-1.2-1.5-3.1-2.3-5.9-2.4
			h-10.9v22.3h10.2c1.2,0,2.2-0.1,3.2-0.3c1-0.2,1.8-0.6,2.6-1.1c0.6-0.5,1.2-1.1,1.6-1.8c0.7-1,1-2.2,1-3.6c0-1.3-0.3-2.4-0.9-3.3
			C624.4,419.6,623.6,418.9,622.4,418.5z M611.9,412.1h4.9c1.1,0,2,0.1,2.7,0.3c0.8,0.3,1.2,1,1.2,2.1c0,0.9-0.3,1.6-0.9,2
			c-0.6,0.4-1.4,0.6-2.4,0.6h-5.5V412.1z M619.7,426.2c-0.5,0.3-1.3,0.4-2.3,0.4h-5.5v-6h5.6c1,0,1.7,0.1,2.3,0.4
			c1,0.4,1.4,1.2,1.4,2.4C621.1,424.8,620.6,425.8,619.7,426.2z"/>
		<rect x="630.8" y="409.2" fill="#1A70F9" width="9.7" height="2.8"/>
		<path fill="#1A70F9" d="M642.5,416.8c-0.8-1.1-1.7-1.9-2.9-2.4c-1.2-0.5-2.5-0.8-3.9-0.8c-2.5,0-4.4,0.8-6,2.3
			c-1.5,1.5-2.3,3.7-2.3,6.6c0,3.1,0.8,5.3,2.6,6.6c1.7,1.4,3.7,2,5.9,2c2.7,0,4.8-0.8,6.3-2.4c1-1,1.5-2,1.6-3h-4.5
			c-0.3,0.5-0.6,0.9-0.9,1.1c-0.6,0.5-1.4,0.8-2.4,0.8c-0.9,0-1.7-0.2-2.4-0.6c-1.1-0.7-1.7-1.8-1.8-3.5H644c0-1.4,0-2.5-0.1-3.3
			C643.6,418.9,643.2,417.8,642.5,416.8z M631.9,420.6c0.2-1.1,0.5-1.9,1.2-2.6c0.6-0.6,1.5-0.9,2.6-0.9c1,0,1.9,0.3,2.6,0.9
			c0.7,0.6,1.1,1.5,1.2,2.6H631.9z"/>
	</g>
	<path id="Dribbble_4_" fill="#E64C87" d="M514,412.3c-0.5-1.1-1-2.1-1.7-3.1c-0.7-1-1.4-1.9-2.2-2.7c-0.8-0.8-1.7-1.6-2.7-2.2
		c-1-0.7-2-1.2-3.1-1.7c-1.1-0.5-2.3-0.8-3.4-1.1c-1.2-0.2-2.4-0.4-3.7-0.4c-1.2,0-2.5,0.1-3.7,0.4c-1.2,0.2-2.3,0.6-3.4,1.1
		c-1.1,0.5-2.1,1-3.1,1.7c-1,0.7-1.9,1.4-2.7,2.2c-0.8,0.8-1.6,1.7-2.2,2.7c-0.7,1-1.2,2-1.7,3.1c-0.5,1.1-0.8,2.3-1.1,3.4
		c-0.2,1.2-0.4,2.4-0.4,3.7c0,1.2,0.1,2.5,0.4,3.7c0.2,1.2,0.6,2.3,1.1,3.4c0.5,1.1,1,2.1,1.7,3.1c0.7,1,1.4,1.9,2.2,2.7
		c0.8,0.8,1.7,1.6,2.7,2.2c1,0.7,2,1.2,3.1,1.7c1.1,0.5,2.3,0.8,3.4,1.1c1.2,0.3,2.4,0.4,3.7,0.4c1.2,0,2.5-0.1,3.7-0.4
		c1.2-0.2,2.3-0.6,3.4-1.1c1.1-0.5,2.1-1,3.1-1.7c1-0.7,1.9-1.4,2.7-2.2c0.8-0.8,1.6-1.7,2.2-2.7c0.7-1,1.2-2,1.7-3.1
		c0.5-1.1,0.8-2.3,1.1-3.4c0.2-1.2,0.4-2.4,0.4-3.7c0-1.2-0.1-2.5-0.4-3.7C514.8,414.6,514.5,413.4,514,412.3z M497.1,403.8
		c4,0,7.6,1.5,10.3,3.9c0,0.1-2.3,3.5-8.2,5.7c-2.7-4.9-5.6-8.8-5.9-9.1C494.6,404,495.9,403.8,497.1,403.8z M493.4,404.2
		C493.4,404.3,493.4,404.3,493.4,404.2C493.4,404.3,493.4,404.3,493.4,404.2C493.3,404.3,493.4,404.3,493.4,404.2z M490.4,405.3
		c0.2,0.3,3.1,4.2,5.8,9c-7.5,2-14,1.9-14.5,1.9C482.8,411.4,486.1,407.4,490.4,405.3z M485.5,429.9c-2.5-2.8-4-6.4-4-10.5
		c0-0.2,0-0.3,0-0.5c0.3,0,8,0.2,16.1-2.2c0.4,0.9,0.9,1.8,1.3,2.7c-0.2,0.1-0.4,0.1-0.6,0.2C489.8,422.3,485.5,429.9,485.5,429.9
		C485.5,429.9,485.5,429.9,485.5,429.9z M497.1,435.1c-3.7,0-7.1-1.3-9.8-3.4c-0.1,0-0.1-0.1-0.2-0.2c0.1,0.1,0.1,0.1,0.2,0.2
		c0.1,0.1,0.2,0.1,0.2,0.1s3-6.5,12.3-9.8c0,0,0.1,0,0.1,0c2.2,5.7,3.1,10.5,3.3,11.9C501.4,434.7,499.3,435.1,497.1,435.1z
		 M505.9,432.4c-0.2-0.9-1-5.5-3-11.2c5.1-0.8,9.4,0.6,9.8,0.7C511.9,426.3,509.4,430.1,505.9,432.4z M501.9,418.8
		c-0.1-0.3-0.2-0.5-0.3-0.8c-0.3-0.8-0.7-1.5-1-2.3c6.2-2.5,8.7-6.2,8.7-6.2c2.2,2.7,3.5,6.1,3.6,9.8
		C512.6,419.2,507.3,418.1,501.9,418.8z"/>
	<path id="Facebook_3_" fill="#43619C" d="M386.7,435.6c0,1.1-0.9,2-2,2h-9.4v-14.2h4.8l0.7-5.5h-5.5v-3.5c0-1.6,0.4-2.7,2.7-2.7
		l2.9,0v-5c-0.5-0.1-2.2-0.2-4.3-0.2c-4.2,0-7.1,2.6-7.1,7.3v4.1h-4.8v5.5h4.8v14.2h-17.6c-1.1,0-2-0.9-2-2V403c0-1.1,0.9-2,2-2
		h32.7c1.1,0,2,0.9,2,2V435.6z"/>
	<g id="Google_x2B__1_">
		<path fill="#F24033" d="M231.4,417.2v5.1c0,0,4.9,0,6.9,0c-1.1,3.3-2.8,5.1-6.9,5.1c-4.2,0-7.5-3.4-7.5-7.6s3.3-7.6,7.5-7.6
			c2.2,0,3.7,0.8,5,1.9c1.1-1.1,1-1.2,3.6-3.7c-2.3-2.1-5.3-3.3-8.6-3.3c-7.1,0-12.8,5.7-12.8,12.8c0,7.1,5.7,12.8,12.8,12.8
			c10.6,0,13.2-9.2,12.3-15.4H231.4z"/>
		<polygon fill="#F24033" points="254.5,417.5 254.5,413 251.4,413 251.4,417.5 246.8,417.5 246.8,420.6 251.4,420.6 251.4,425.2 
			254.5,425.2 254.5,420.6 259,420.6 259,417.5 		"/>
	</g>
</g>
<g id="_x30_2-CIRCLE-COLOR">
	<g id="Vimeo_7_">
		<g id="Vimeo_1_">
			<path fill="#1CB1E6" d="M1153.1,274.3c-5.1-0.2-8.5,2.7-10.4,8.5c0.9-0.4,1.8-0.6,2.7-0.6c1.9,0,2.7,1,2.5,3.1
				c-0.1,1.3-0.9,3.1-2.5,5.5c-1.5,2.4-2.7,3.6-3.5,3.6c-1,0-1.9-1.8-2.7-5.5c-0.3-1.1-0.8-3.8-1.5-8.3c-0.7-4.1-2.4-6-5.3-5.8
				c-1.2,0.1-3,1.2-5.4,3.3c-1.8,1.6-3.5,3.1-5.3,4.7l1.7,2.2c1.6-1.1,2.6-1.7,2.9-1.7c1.3,0,2.4,2,3.5,5.9c1,3.6,2,7.2,3,10.7
				c1.5,3.9,3.3,5.8,5.4,5.8c3.5,0,7.7-3.2,12.7-9.6c4.8-6.1,7.3-10.9,7.5-14.5C1158.7,276.8,1156.9,274.4,1153.1,274.3z"/>
		</g>
		<path fill="#1CB1E6" d="M1140.1,329.3c-21.8,0-39.5-17.7-39.5-39.5s17.7-39.5,39.5-39.5s39.5,17.7,39.5,39.5
			S1161.9,329.3,1140.1,329.3z M1140.1,253.3c-20.1,0-36.5,16.4-36.5,36.5s16.4,36.5,36.5,36.5s36.5-16.4,36.5-36.5
			S1160.2,253.3,1140.1,253.3z"/>
	</g>
	<g id="Instagram_7_">
		<path id="Instagram_1_" fill="#2A5B83" d="M1025.1,271.4h-27.9c-2.4,0-4.4,1.9-4.4,4.3v28c0,2.4,2,4.3,4.4,4.3h27.9
			c2.4,0,4.4-1.9,4.4-4.3v-28C1029.4,273.3,1027.5,271.4,1025.1,271.4z M1019.1,277.1c0-0.6,0.5-1.1,1.1-1.1h3.4
			c0.6,0,1.1,0.5,1.1,1.1v3.4c0,0.6-0.5,1.1-1.1,1.1h-3.4c-0.6,0-1.1-0.5-1.1-1.1V277.1z M1011.1,282.7c3.9,0,7.1,3.1,7.1,7
			c0,3.9-3.2,7-7.1,7c-3.9,0-7-3.1-7-7C1004.1,285.9,1007.2,282.7,1011.1,282.7z M1026,303.4c0,0.6-0.5,1.1-1.1,1.1h-27.5
			c-0.6,0-1.1-0.5-1.1-1.1v-17.2h4.6c-0.6,0.9-0.8,2.5-0.8,3.5c0,6.1,5,11.1,11.2,11.1c6.2,0,11.2-5,11.2-11.1c0-1-0.1-2.6-0.9-3.5
			h4.6V303.4z"/>
		<path fill="#2A5B83" d="M1010.1,329.3c-21.8,0-39.5-17.7-39.5-39.5s17.7-39.5,39.5-39.5c21.8,0,39.5,17.7,39.5,39.5
			S1031.9,329.3,1010.1,329.3z M1010.1,253.3c-20.1,0-36.5,16.4-36.5,36.5s16.4,36.5,36.5,36.5c20.1,0,36.5-16.4,36.5-36.5
			S1030.2,253.3,1010.1,253.3z"/>
	</g>
	<g id="Twitter_7_">
		<path id="Twitter_1_" fill="#24A9E6" d="M900.4,274.6c-1.5,0.9-3.1,1.6-4.9,1.9c-1.4-1.5-3.4-2.5-5.6-2.5c-4.2,0-7.7,3.5-7.7,7.9
			c0,0.6,0.1,1.2,0.2,1.8c-6.4-0.3-12-3.5-15.8-8.2c-0.7,1.2-1,2.5-1,4c0,2.7,1.4,5.1,3.4,6.6c-1.3,0-2.4-0.4-3.5-1v0.1
			c0,3.8,2.6,7,6.2,7.7c-0.6,0.2-1.3,0.3-2,0.3c-0.5,0-1,0-1.4-0.1c1,3.1,3.8,5.4,7.2,5.5c-2.6,2.1-5.9,3.4-9.5,3.4
			c-0.6,0-1.2,0-1.8-0.1c3.4,2.2,7.4,3.5,11.8,3.5c14.1,0,21.9-12,21.9-22.4c0-0.3,0-0.7,0-1c1.5-1.1,2.8-2.5,3.8-4.1
			c-1.4,0.6-2.9,1.1-4.4,1.2C898.6,277.9,899.8,276.4,900.4,274.6z"/>
		<path fill="#24A9E6" d="M883.1,329.3c-21.8,0-39.5-17.7-39.5-39.5s17.7-39.5,39.5-39.5s39.5,17.7,39.5,39.5
			S904.9,329.3,883.1,329.3z M883.1,253.3c-20.1,0-36.5,16.4-36.5,36.5s16.4,36.5,36.5,36.5s36.5-16.4,36.5-36.5
			S903.2,253.3,883.1,253.3z"/>
	</g>
	<g id="LinKeDin_2_">
		<g id="LinkedIn_1_">
			<rect x="737.3" y="284.1" fill="#187FB8" width="7.2" height="22.8"/>
			<path fill="#187FB8" d="M764.1,283.8c-4.1,0-6.7,2.2-7.2,3.8v-3.6h-8.1c0.1,1.9,0,22.8,0,22.8h8.1v-12.3c0-0.7,0-1.4,0.2-1.9
				c0.6-1.4,1.7-2.8,3.9-2.8c2.8,0,4.1,2.1,4.1,5.2v11.8h8.2v-12.7C773.2,287.1,769.2,283.8,764.1,283.8z"/>
			<path fill="#187FB8" d="M740.7,273.3c-2.7,0-4.4,1.7-4.4,4c0,2.2,1.7,3.9,4.3,3.9h0.1c2.7,0,4.4-1.7,4.4-4
				C745,275,743.4,273.3,740.7,273.3z"/>
		</g>
		<path fill="#187FB8" d="M754.1,329.3c-21.8,0-39.5-17.7-39.5-39.5s17.7-39.5,39.5-39.5s39.5,17.7,39.5,39.5
			S775.9,329.3,754.1,329.3z M754.1,253.3c-20.1,0-36.5,16.4-36.5,36.5s16.4,36.5,36.5,36.5s36.5-16.4,36.5-36.5
			S774.2,253.3,754.1,253.3z"/>
	</g>
	<g id="Behance_7_">
		<g id="Behance_1_">
			<path fill="#1A70F9" d="M622.4,288.8c0.8-0.4,1.3-0.8,1.7-1.3c0.7-0.8,1-1.9,1-3.3c0-1.3-0.3-2.5-1-3.4c-1.2-1.5-3.1-2.3-5.9-2.4
				h-10.9v22.3h10.2c1.2,0,2.2-0.1,3.2-0.3c1-0.2,1.8-0.6,2.6-1.1c0.6-0.5,1.2-1.1,1.6-1.8c0.7-1,1-2.2,1-3.6c0-1.3-0.3-2.4-0.9-3.3
				C624.4,289.8,623.6,289.2,622.4,288.8z M611.9,282.3h4.9c1.1,0,2,0.1,2.7,0.3c0.8,0.3,1.2,1,1.2,2.1c0,0.9-0.3,1.6-0.9,2
				c-0.6,0.4-1.4,0.6-2.4,0.6h-5.5V282.3z M619.7,296.5c-0.5,0.3-1.3,0.4-2.3,0.4h-5.5v-6h5.6c1,0,1.7,0.1,2.3,0.4
				c1,0.4,1.4,1.2,1.4,2.4C621.1,295.1,620.6,296,619.7,296.5z"/>
			<rect x="630.8" y="279.5" fill="#1A70F9" width="9.7" height="2.8"/>
			<path fill="#1A70F9" d="M642.5,287c-0.8-1.1-1.7-1.9-2.9-2.4c-1.2-0.5-2.5-0.8-3.9-0.8c-2.5,0-4.4,0.8-6,2.3
				c-1.5,1.5-2.3,3.7-2.3,6.6c0,3.1,0.8,5.3,2.6,6.6c1.7,1.4,3.7,2,5.9,2c2.7,0,4.8-0.8,6.3-2.4c1-1,1.5-2,1.6-3h-4.5
				c-0.3,0.5-0.6,0.9-0.9,1.1c-0.6,0.5-1.4,0.8-2.4,0.8c-0.9,0-1.7-0.2-2.4-0.6c-1.1-0.7-1.7-1.8-1.8-3.5H644c0-1.4,0-2.5-0.1-3.3
				C643.6,289.1,643.2,288,642.5,287z M631.9,290.9c0.2-1.1,0.5-1.9,1.2-2.6c0.6-0.6,1.5-0.9,2.6-0.9c1,0,1.9,0.3,2.6,0.9
				c0.7,0.6,1.1,1.5,1.2,2.6H631.9z"/>
		</g>
		<path fill="#1A70F9" d="M625.1,329.3c-21.8,0-39.5-17.7-39.5-39.5s17.7-39.5,39.5-39.5s39.5,17.7,39.5,39.5
			S646.9,329.3,625.1,329.3z M625.1,253.3c-20.1,0-36.5,16.4-36.5,36.5s16.4,36.5,36.5,36.5s36.5-16.4,36.5-36.5
			S645.2,253.3,625.1,253.3z"/>
	</g>
	<g id="Dribbble_7_">
		<g>
			<path id="Dribbble_1_" fill="#E64C87" d="M514,282.6c-0.5-1.1-1-2.1-1.7-3.1c-0.7-1-1.4-1.9-2.2-2.7c-0.8-0.8-1.7-1.6-2.7-2.2
				c-1-0.7-2-1.2-3.1-1.7c-1.1-0.5-2.3-0.8-3.4-1.1c-1.2-0.2-2.4-0.4-3.7-0.4c-1.2,0-2.5,0.1-3.7,0.4c-1.2,0.2-2.3,0.6-3.4,1.1
				c-1.1,0.5-2.1,1-3.1,1.7c-1,0.7-1.9,1.4-2.7,2.2c-0.8,0.8-1.6,1.7-2.2,2.7c-0.7,1-1.2,2-1.7,3.1c-0.5,1.1-0.8,2.3-1.1,3.4
				c-0.2,1.2-0.4,2.4-0.4,3.7c0,1.2,0.1,2.5,0.4,3.7c0.2,1.2,0.6,2.3,1.1,3.4c0.5,1.1,1,2.1,1.7,3.1c0.7,1,1.4,1.9,2.2,2.7
				c0.8,0.8,1.7,1.6,2.7,2.2c1,0.7,2,1.2,3.1,1.7c1.1,0.5,2.3,0.8,3.4,1.1c1.2,0.3,2.4,0.4,3.7,0.4c1.2,0,2.5-0.1,3.7-0.4
				c1.2-0.2,2.3-0.6,3.4-1.1c1.1-0.5,2.1-1,3.1-1.7c1-0.7,1.9-1.4,2.7-2.2c0.8-0.8,1.6-1.7,2.2-2.7c0.7-1,1.2-2,1.7-3.1
				c0.5-1.1,0.8-2.3,1.1-3.4c0.2-1.2,0.4-2.4,0.4-3.7c0-1.2-0.1-2.5-0.4-3.7C514.8,284.8,514.5,283.7,514,282.6z M497.1,274
				c4,0,7.6,1.5,10.3,3.9c0,0.1-2.3,3.5-8.2,5.7c-2.7-4.9-5.6-8.8-5.9-9.1C494.6,274.2,495.9,274,497.1,274z M493.4,274.5
				C493.4,274.5,493.4,274.5,493.4,274.5C493.4,274.5,493.4,274.5,493.4,274.5C493.3,274.5,493.4,274.5,493.4,274.5z M490.4,275.5
				c0.2,0.3,3.1,4.2,5.8,9c-7.5,2-14,1.9-14.5,1.9C482.8,281.6,486.1,277.6,490.4,275.5z M485.5,300.2c-2.5-2.8-4-6.4-4-10.5
				c0-0.2,0-0.3,0-0.5c0.3,0,8,0.2,16.1-2.2c0.4,0.9,0.9,1.8,1.3,2.7c-0.2,0.1-0.4,0.1-0.6,0.2C489.8,292.5,485.5,300.1,485.5,300.2
				C485.5,300.1,485.5,300.2,485.5,300.2z M497.1,305.4c-3.7,0-7.1-1.3-9.8-3.4c-0.1,0-0.1-0.1-0.2-0.2c0.1,0.1,0.1,0.1,0.2,0.2
				c0.1,0.1,0.2,0.1,0.2,0.1s3-6.5,12.3-9.8c0,0,0.1,0,0.1,0c2.2,5.7,3.1,10.5,3.3,11.9C501.4,304.9,499.3,305.4,497.1,305.4z
				 M505.9,302.7c-0.2-0.9-1-5.5-3-11.2c5.1-0.8,9.4,0.6,9.8,0.7C511.9,296.5,509.4,300.3,505.9,302.7z M501.9,289
				c-0.1-0.3-0.2-0.5-0.3-0.8c-0.3-0.8-0.7-1.5-1-2.3c6.2-2.5,8.7-6.2,8.7-6.2c2.2,2.7,3.5,6.1,3.6,9.8
				C512.6,289.5,507.3,288.3,501.9,289z"/>
		</g>
		<path fill="#E64C87" d="M497.1,329.3c-21.8,0-39.5-17.7-39.5-39.5s17.7-39.5,39.5-39.5c21.8,0,39.5,17.7,39.5,39.5
			S518.9,329.3,497.1,329.3z M497.1,253.3c-20.1,0-36.5,16.4-36.5,36.5s16.4,36.5,36.5,36.5c20.1,0,36.5-16.4,36.5-36.5
			S517.2,253.3,497.1,253.3z"/>
	</g>
	<g id="Facebook_6_">
		<path fill="#43619C" d="M369.1,328.3c-21.8,0-39.5-17.7-39.5-39.5s17.7-39.5,39.5-39.5s39.5,17.7,39.5,39.5
			S390.9,328.3,369.1,328.3z M369.1,252.3c-20.1,0-36.5,16.4-36.5,36.5s16.4,36.5,36.5,36.5s36.5-16.4,36.5-36.5
			S389.2,252.3,369.1,252.3z"/>
		<path id="Facebook_1_" fill="#43619C" d="M387.2,304.4c0,1.1-0.9,2-2,2h-9.4v-14.2h4.8l0.7-5.5h-5.5v-3.5c0-1.6,0.4-2.7,2.7-2.7
			l2.9,0v-5c-0.5-0.1-2.2-0.2-4.3-0.2c-4.2,0-7.1,2.6-7.1,7.3v4.1h-4.8v5.5h4.8v14.2h-17.6c-1.1,0-2-0.9-2-2v-32.7c0-1.1,0.9-2,2-2
			h32.7c1.1,0,2,0.9,2,2V304.4z"/>
	</g>
	<g id="Google_x2B__5_">
		<path fill="#F24033" d="M239.1,328.3c-21.8,0-39.5-17.7-39.5-39.5s17.7-39.5,39.5-39.5s39.5,17.7,39.5,39.5
			S260.9,328.3,239.1,328.3z M239.1,252.3c-20.1,0-36.5,16.4-36.5,36.5s16.4,36.5,36.5,36.5s36.5-16.4,36.5-36.5
			S259.2,252.3,239.1,252.3z"/>
		<path fill="#F24033" d="M231.4,285.9v5.1c0,0,4.9,0,6.9,0c-1.1,3.3-2.8,5.1-6.9,5.1c-4.2,0-7.5-3.4-7.5-7.6s3.3-7.6,7.5-7.6
			c2.2,0,3.7,0.8,5,1.9c1.1-1.1,1-1.2,3.6-3.7c-2.3-2.1-5.3-3.3-8.6-3.3c-7.1,0-12.8,5.7-12.8,12.8c0,7.1,5.7,12.8,12.8,12.8
			c10.6,0,13.2-9.2,12.3-15.4H231.4z"/>
		<polygon fill="#F24033" points="254.5,286.2 254.5,281.7 251.4,281.7 251.4,286.2 246.8,286.2 246.8,289.4 251.4,289.4 
			251.4,293.9 254.5,293.9 254.5,289.4 259,289.4 259,286.2 		"/>
	</g>
</g>
<g id="_x30_1-SINGLE-GREY">
	<path id="Vimeo" fill="#8E99A8" d="M1153.1,145c-5.1-0.2-8.5,2.7-10.4,8.5c0.9-0.4,1.8-0.6,2.7-0.6c1.9,0,2.7,1,2.5,3.1
		c-0.1,1.3-0.9,3.1-2.5,5.5c-1.5,2.4-2.7,3.6-3.5,3.6c-1,0-1.9-1.8-2.7-5.5c-0.3-1.1-0.8-3.8-1.5-8.3c-0.7-4.1-2.4-6-5.3-5.8
		c-1.2,0.1-3,1.2-5.4,3.3c-1.8,1.6-3.5,3.1-5.3,4.7l1.7,2.2c1.6-1.1,2.6-1.7,2.9-1.7c1.3,0,2.4,2,3.5,5.9c1,3.6,2,7.2,3,10.7
		c1.5,3.9,3.3,5.8,5.4,5.8c3.5,0,7.7-3.2,12.7-9.6c4.8-6.1,7.3-10.9,7.5-14.5C1158.7,147.6,1156.9,145.2,1153.1,145z"/>
	<path id="Instagram" fill="#8E99A8" d="M1025.1,142.1h-27.9c-2.4,0-4.4,1.9-4.4,4.3v28c0,2.4,2,4.3,4.4,4.3h27.9
		c2.4,0,4.4-1.9,4.4-4.3v-28C1029.4,144.1,1027.5,142.1,1025.1,142.1z M1019.1,147.9c0-0.6,0.5-1.1,1.1-1.1h3.4
		c0.6,0,1.1,0.5,1.1,1.1v3.4c0,0.6-0.5,1.1-1.1,1.1h-3.4c-0.6,0-1.1-0.5-1.1-1.1V147.9z M1011.1,153.5c3.9,0,7.1,3.1,7.1,7
		c0,3.9-3.2,7-7.1,7c-3.9,0-7-3.1-7-7C1004.1,156.6,1007.2,153.5,1011.1,153.5z M1026,174.2c0,0.6-0.5,1.1-1.1,1.1h-27.5
		c-0.6,0-1.1-0.5-1.1-1.1V157h4.6c-0.6,0.9-0.8,2.5-0.8,3.5c0,6.1,5,11.1,11.2,11.1c6.2,0,11.2-5,11.2-11.1c0-1-0.1-2.6-0.9-3.5h4.6
		V174.2z"/>
	<path id="Twitter" fill="#8E99A8" d="M900.4,145.3c-1.5,0.9-3.1,1.6-4.9,1.9c-1.4-1.5-3.4-2.5-5.6-2.5c-4.2,0-7.7,3.5-7.7,7.9
		c0,0.6,0.1,1.2,0.2,1.8c-6.4-0.3-12-3.5-15.8-8.2c-0.7,1.2-1,2.5-1,4c0,2.7,1.4,5.1,3.4,6.6c-1.3,0-2.4-0.4-3.5-1v0.1
		c0,3.8,2.6,7,6.2,7.7c-0.6,0.2-1.3,0.3-2,0.3c-0.5,0-1,0-1.4-0.1c1,3.1,3.8,5.4,7.2,5.5c-2.6,2.1-5.9,3.4-9.5,3.4
		c-0.6,0-1.2,0-1.8-0.1c3.4,2.2,7.4,3.5,11.8,3.5c14.1,0,21.9-12,21.9-22.4c0-0.3,0-0.7,0-1c1.5-1.1,2.8-2.5,3.8-4.1
		c-1.4,0.6-2.9,1.1-4.4,1.2C898.6,148.7,899.8,147.2,900.4,145.3z"/>
	<g id="LinkedIn">
		<rect x="737.3" y="154.8" fill="#8E99A8" width="7.2" height="22.8"/>
		<path fill="#8E99A8" d="M764.1,154.6c-4.1,0-6.7,2.2-7.2,3.8v-3.6h-8.1c0.1,1.9,0,22.8,0,22.8h8.1v-12.3c0-0.7,0-1.4,0.2-1.9
			c0.6-1.4,1.7-2.8,3.9-2.8c2.8,0,4.1,2.1,4.1,5.2v11.8h8.2v-12.7C773.2,157.9,769.2,154.6,764.1,154.6z"/>
		<path fill="#8E99A8" d="M740.7,144.1c-2.7,0-4.4,1.7-4.4,4c0,2.2,1.7,3.9,4.3,3.9h0.1c2.7,0,4.4-1.7,4.4-4
			C745,145.8,743.4,144.1,740.7,144.1z"/>
	</g>
	<g id="Behance">
		<path fill="#8E99A8" d="M622.4,159.5c0.8-0.4,1.3-0.8,1.7-1.3c0.7-0.8,1-1.9,1-3.3c0-1.3-0.3-2.5-1-3.4c-1.2-1.5-3.1-2.3-5.9-2.4
			h-10.9v22.3h10.2c1.2,0,2.2-0.1,3.2-0.3c1-0.2,1.8-0.6,2.6-1.1c0.6-0.5,1.2-1.1,1.6-1.8c0.7-1,1-2.2,1-3.6c0-1.3-0.3-2.4-0.9-3.3
			C624.4,160.6,623.6,159.9,622.4,159.5z M611.9,153.1h4.9c1.1,0,2,0.1,2.7,0.3c0.8,0.3,1.2,1,1.2,2.1c0,0.9-0.3,1.6-0.9,2
			c-0.6,0.4-1.4,0.6-2.4,0.6h-5.5V153.1z M619.7,167.2c-0.5,0.3-1.3,0.4-2.3,0.4h-5.5v-6h5.6c1,0,1.7,0.1,2.3,0.4
			c1,0.4,1.4,1.2,1.4,2.4C621.1,165.8,620.6,166.8,619.7,167.2z"/>
		<rect x="630.8" y="150.2" fill="#8E99A8" width="9.7" height="2.8"/>
		<path fill="#8E99A8" d="M642.5,157.8c-0.8-1.1-1.7-1.9-2.9-2.4c-1.2-0.5-2.5-0.8-3.9-0.8c-2.5,0-4.4,0.8-6,2.3
			c-1.5,1.5-2.3,3.7-2.3,6.6c0,3.1,0.8,5.3,2.6,6.6c1.7,1.4,3.7,2,5.9,2c2.7,0,4.8-0.8,6.3-2.4c1-1,1.5-2,1.6-3h-4.5
			c-0.3,0.5-0.6,0.9-0.9,1.1c-0.6,0.5-1.4,0.8-2.4,0.8c-0.9,0-1.7-0.2-2.4-0.6c-1.1-0.7-1.7-1.8-1.8-3.5H644c0-1.4,0-2.5-0.1-3.3
			C643.6,159.9,643.2,158.8,642.5,157.8z M631.9,161.6c0.2-1.1,0.5-1.9,1.2-2.6c0.6-0.6,1.5-0.9,2.6-0.9c1,0,1.9,0.3,2.6,0.9
			c0.7,0.6,1.1,1.5,1.2,2.6H631.9z"/>
	</g>
	<path id="Dribbble" fill="#8E99A8" d="M514,153.3c-0.5-1.1-1-2.1-1.7-3.1c-0.7-1-1.4-1.9-2.2-2.7c-0.8-0.8-1.7-1.6-2.7-2.2
		c-1-0.7-2-1.2-3.1-1.7c-1.1-0.5-2.3-0.8-3.4-1.1c-1.2-0.2-2.4-0.4-3.7-0.4c-1.2,0-2.5,0.1-3.7,0.4c-1.2,0.2-2.3,0.6-3.4,1.1
		c-1.1,0.5-2.1,1-3.1,1.7c-1,0.7-1.9,1.4-2.7,2.2c-0.8,0.8-1.6,1.7-2.2,2.7c-0.7,1-1.2,2-1.7,3.1c-0.5,1.1-0.8,2.3-1.1,3.4
		c-0.2,1.2-0.4,2.4-0.4,3.7c0,1.2,0.1,2.5,0.4,3.7c0.2,1.2,0.6,2.3,1.1,3.4c0.5,1.1,1,2.1,1.7,3.1c0.7,1,1.4,1.9,2.2,2.7
		c0.8,0.8,1.7,1.6,2.7,2.2c1,0.7,2,1.2,3.1,1.7c1.1,0.5,2.3,0.8,3.4,1.1c1.2,0.3,2.4,0.4,3.7,0.4c1.2,0,2.5-0.1,3.7-0.4
		c1.2-0.2,2.3-0.6,3.4-1.1c1.1-0.5,2.1-1,3.1-1.7c1-0.7,1.9-1.4,2.7-2.2c0.8-0.8,1.6-1.7,2.2-2.7c0.7-1,1.2-2,1.7-3.1
		c0.5-1.1,0.8-2.3,1.1-3.4c0.2-1.2,0.4-2.4,0.4-3.7c0-1.2-0.1-2.5-0.4-3.7C514.8,155.6,514.5,154.4,514,153.3z M497.1,144.8
		c4,0,7.6,1.5,10.3,3.9c0,0.1-2.3,3.5-8.2,5.7c-2.7-4.9-5.6-8.8-5.9-9.1C494.6,145,495.9,144.8,497.1,144.8z M493.4,145.2
		C493.4,145.3,493.4,145.3,493.4,145.2C493.4,145.3,493.4,145.3,493.4,145.2C493.3,145.3,493.4,145.3,493.4,145.2z M490.4,146.3
		c0.2,0.3,3.1,4.2,5.8,9c-7.5,2-14,1.9-14.5,1.9C482.8,152.4,486.1,148.4,490.4,146.3z M485.5,170.9c-2.5-2.8-4-6.4-4-10.5
		c0-0.2,0-0.3,0-0.5c0.3,0,8,0.2,16.1-2.2c0.4,0.9,0.9,1.8,1.3,2.7c-0.2,0.1-0.4,0.1-0.6,0.2C489.8,163.3,485.5,170.9,485.5,170.9
		C485.5,170.9,485.5,170.9,485.5,170.9z M497.1,176.1c-3.7,0-7.1-1.3-9.8-3.4c-0.1,0-0.1-0.1-0.2-0.2c0.1,0.1,0.1,0.1,0.2,0.2
		c0.1,0.1,0.2,0.1,0.2,0.1s3-6.5,12.3-9.8c0,0,0.1,0,0.1,0c2.2,5.7,3.1,10.5,3.3,11.9C501.4,175.7,499.3,176.1,497.1,176.1z
		 M505.9,173.4c-0.2-0.9-1-5.5-3-11.2c5.1-0.8,9.4,0.6,9.8,0.7C511.9,167.3,509.4,171.1,505.9,173.4z M501.9,159.8
		c-0.1-0.3-0.2-0.5-0.3-0.8c-0.3-0.8-0.7-1.5-1-2.3c6.2-2.5,8.7-6.2,8.7-6.2c2.2,2.7,3.5,6.1,3.6,9.8
		C512.6,160.2,507.3,159.1,501.9,159.8z"/>
	<path id="Facebook" fill="#8E99A8" d="M386.7,176.6c0,1.1-0.9,2-2,2h-9.4v-14.2h4.8l0.7-5.5h-5.5v-3.5c0-1.6,0.4-2.7,2.7-2.7l2.9,0
		v-5c-0.5-0.1-2.2-0.2-4.3-0.2c-4.2,0-7.1,2.6-7.1,7.3v4.1h-4.8v5.5h4.8v14.2h-17.6c-1.1,0-2-0.9-2-2V144c0-1.1,0.9-2,2-2h32.7
		c1.1,0,2,0.9,2,2V176.6z"/>
	<g id="Google_x2B_">
		<path fill="#8E99A8" d="M231.4,158.2v5.1c0,0,4.9,0,6.9,0c-1.1,3.3-2.8,5.1-6.9,5.1c-4.2,0-7.5-3.4-7.5-7.6s3.3-7.6,7.5-7.6
			c2.2,0,3.7,0.8,5,1.9c1.1-1.1,1-1.2,3.6-3.7c-2.3-2.1-5.3-3.3-8.6-3.3c-7.1,0-12.8,5.7-12.8,12.8c0,7.1,5.7,12.8,12.8,12.8
			c10.6,0,13.2-9.2,12.3-15.4H231.4z"/>
		<polygon fill="#8E99A8" points="254.5,158.5 254.5,154 251.4,154 251.4,158.5 246.8,158.5 246.8,161.6 251.4,161.6 251.4,166.2 
			254.5,166.2 254.5,161.6 259,161.6 259,158.5 		"/>
	</g>
</g>
</svg>
